<?xml version="1.0" encoding="UTF-8" standalone="no"?>
<!DOCTYPE svg PUBLIC "-//W3C//DTD SVG 1.1//EN"
 "http://www.w3.org/Graphics/SVG/1.1/DTD/svg11.dtd">
<!-- Generated by graphviz version 2.40.1 (20161225.0304)
 -->
<!-- Title: %0 Pages: 1 -->
<svg width="512pt" height="260pt"
 viewBox="0.00 0.00 512.00 260.00" xmlns="http://www.w3.org/2000/svg" xmlns:xlink="http://www.w3.org/1999/xlink">
<g id="graph0" class="graph" transform="scale(1 1) rotate(0) translate(4 256)">
<title>%0</title>
<polygon fill="#ffffff" stroke="transparent" points="-4,4 -4,-256 508,-256 508,4 -4,4"/>
<!-- x1&#45;&gt;y -->
<g id="edge5" class="edge">
<title>x1&#45;&gt;y</title>
<path fill="none" stroke="#000000" d="M324.0059,-126C345.0013,-126 369.1256,-126 390.6085,-126"/>
<polygon fill="#000000" stroke="#000000" points="390.7214,-127.7501 395.7213,-126 390.7213,-124.2501 390.7214,-127.7501"/>
</g>
<!-- M1&#45;&gt;x1 -->
<g id="edge1" class="edge">
<title>M1:e&#45;&gt;x1</title>
<path fill="none" stroke="#000000" d="M144,-18C144,-18 208.2722,-73.0904 245.0088,-104.579"/>
<polygon fill="#000000" stroke="#000000" points="243.9752,-105.9979 248.9104,-107.9232 246.253,-103.3405 243.9752,-105.9979"/>
</g>
<!-- M1&#45;&gt;y -->
<g id="edge3" class="edge">
<title>M1:e&#45;&gt;y</title>
<path fill="none" stroke="#000000" d="M144,-18C144,-18 305.5073,-75.0026 393.8519,-106.183"/>
<polygon fill="#000000" stroke="#000000" points="393.4851,-107.9093 398.7825,-107.9232 394.65,-104.6088 393.4851,-107.9093"/>
</g>
<!-- M2&#45;&gt;x1 -->
<g id="edge2" class="edge">
<title>M2:e&#45;&gt;x1</title>
<path fill="none" stroke="#000000" d="M144,-234C144,-234 208.2722,-178.9096 245.0088,-147.421"/>
<polygon fill="#000000" stroke="#000000" points="246.253,-148.6595 248.9104,-144.0768 243.9752,-146.0021 246.253,-148.6595"/>
</g>
<!-- M2&#45;&gt;y -->
<g id="edge4" class="edge">
<title>M2:e&#45;&gt;y</title>
<path fill="none" stroke="#000000" d="M144,-234C144,-234 305.5073,-176.9974 393.8519,-145.817"/>
<polygon fill="#000000" stroke="#000000" points="394.65,-147.3912 398.7825,-144.0768 393.4851,-144.0907 394.65,-147.3912"/>
</g>
<!-- x1 -->
<g id="node1" class="node">
<title>x1</title>
<polygon fill="#ffffff" stroke="#000000" points="324,-144 216,-144 216,-108 324,-108 324,-144"/>
<text text-anchor="start" x="251.939" y="-129" font-family="Helvetica,sans-Serif" font-size="10.00" fill="#000000">Valuing </text>
<text text-anchor="start" x="250.2785" y="-117" font-family="Helvetica,sans-Serif" font-size="10.00" fill="#000000"> diversity</text>
</g>
<!-- y -->
<g id="node2" class="node">
<title>y</title>
<polygon fill="#ffffff" stroke="#000000" points="504,-144 396,-144 396,-108 504,-108 504,-144"/>
<text text-anchor="start" x="407.7635" y="-129" font-family="Helvetica,sans-Serif" font-size="10.00" fill="#000000">Negative outgroup </text>
<text text-anchor="start" x="429.7145" y="-117" font-family="Helvetica,sans-Serif" font-size="10.00" fill="#000000"> attitudes</text>
</g>
<!-- M1 -->
<g id="node3" class="node">
<title>M1</title>
<polygon fill="#ffffff" stroke="#000000" points="144,-36 36,-36 36,0 144,0 144,-36"/>
<text text-anchor="start" x="68.884" y="-21" font-family="Helvetica,sans-Serif" font-size="10.00" fill="#000000">Negative </text>
<text text-anchor="start" x="72.493" y="-9" font-family="Helvetica,sans-Serif" font-size="10.00" fill="#000000"> contact</text>
</g>
<!-- M2 -->
<g id="node4" class="node">
<title>M2</title>
<polygon fill="#ffffff" stroke="#000000" points="144,-252 36,-252 36,-216 144,-216 144,-252"/>
<text text-anchor="start" x="71.1085" y="-237" font-family="Helvetica,sans-Serif" font-size="10.00" fill="#000000">Positive </text>
<text text-anchor="start" x="72.493" y="-225" font-family="Helvetica,sans-Serif" font-size="10.00" fill="#000000"> contact</text>
</g>
<!-- a1 -->
<g id="node5" class="node">
<title>a1</title>
<polygon fill-opacity="0.0" stroke="transparent" points="196.56,-187.2 160.56,-187.2 160.56,-151.2 196.56,-151.2 196.56,-187.2"/>
<text text-anchor="start" x="164.943" y="-172.2" font-family="Helvetica,sans-Serif" font-size="10.00" fill="#000000">0.14**</text>
<text text-anchor="start" x="153.546" y="-160.2" font-family="Helvetica,sans-Serif" font-size="10.00" fill="#000000">[0.05, 0.24]</text>
</g>
<!-- a2 -->
<g id="node6" class="node">
<title>a2</title>
<polygon fill-opacity="0.0" stroke="transparent" points="196.56,-104.4 160.56,-104.4 160.56,-68.4 196.56,-68.4 196.56,-104.4"/>
<text text-anchor="start" x="165.223" y="-89.4" font-family="Helvetica,sans-Serif" font-size="10.00" fill="#000000">&#45;0.09*</text>
<text text-anchor="start" x="150.217" y="-77.4" font-family="Helvetica,sans-Serif" font-size="10.00" fill="#000000">[&#45;0.18, &#45;0.01]</text>
</g>
<!-- c1 -->
<g id="node7" class="node">
<title>c1</title>
<polygon fill-opacity="0.0" stroke="transparent" points="324,-219.6 288,-219.6 288,-183.6 324,-183.6 324,-219.6"/>
<text text-anchor="start" x="288.774" y="-204.6" font-family="Helvetica,sans-Serif" font-size="10.00" fill="#000000">&#45;0.30***</text>
<text text-anchor="start" x="277.657" y="-192.6" font-family="Helvetica,sans-Serif" font-size="10.00" fill="#000000">[&#45;0.41, &#45;0.19]</text>
</g>
<!-- c2 -->
<g id="node8" class="node">
<title>c2</title>
<polygon fill-opacity="0.0" stroke="transparent" points="324,-75.6 288,-75.6 288,-39.6 324,-39.6 324,-75.6"/>
<text text-anchor="start" x="292.383" y="-60.6" font-family="Helvetica,sans-Serif" font-size="10.00" fill="#000000">0.12**</text>
<text text-anchor="start" x="280.986" y="-48.6" font-family="Helvetica,sans-Serif" font-size="10.00" fill="#000000">[0.04, 0.20]</text>
</g>
<!-- b -->
<g id="node9" class="node">
<title>b</title>
<polygon fill-opacity="0.0" stroke="transparent" points="378,-142.56 342,-142.56 342,-106.56 378,-106.56 378,-142.56"/>
<text text-anchor="start" x="346.663" y="-127.56" font-family="Helvetica,sans-Serif" font-size="10.00" fill="#000000">&#45;0.22*</text>
<text text-anchor="start" x="331.657" y="-115.56" font-family="Helvetica,sans-Serif" font-size="10.00" fill="#000000">[&#45;0.39, &#45;0.05]</text>
</g>
<!-- cv -->
<g id="node10" class="node">
<title>cv</title>
<polygon fill-opacity="0.0" stroke="transparent" points="50.4,-144 14.4,-144 14.4,-108 50.4,-108 50.4,-144"/>
<text text-anchor="start" x="21.0075" y="-129" font-family="Helvetica,sans-Serif" font-size="10.00" fill="#000000">&#45;0.09</text>
<text text-anchor="start" x="5.7215" y="-117" font-family="Helvetica,sans-Serif" font-size="10.00" fill="#000000">[&#45;0.22, 0.04]</text>
</g>
<!-- space -->
<g id="node11" class="node">
<title>space</title>
</g>
</g>
</svg>

