<?xml version="1.0" encoding="UTF-8" standalone="no"?>
<!DOCTYPE svg PUBLIC "-//W3C//DTD SVG 1.1//EN"
 "http://www.w3.org/Graphics/SVG/1.1/DTD/svg11.dtd">
<!-- Generated by graphviz version 2.40.1 (20161225.0304)
 -->
<!-- Title: %0 Pages: 1 -->
<svg width="476pt" height="282pt"
 viewBox="0.00 0.00 476.00 281.50" xmlns="http://www.w3.org/2000/svg" xmlns:xlink="http://www.w3.org/1999/xlink">
<g id="graph0" class="graph" transform="scale(1 1) rotate(0) translate(4 277.5)">
<title>%0</title>
<polygon fill="#ffffff" stroke="transparent" points="-4,4 -4,-277.5 472,-277.5 472,4 -4,4"/>
<!-- x1&#45;&gt;y -->
<g id="edge7" class="edge">
<title>x1&#45;&gt;y</title>
<path fill="none" stroke="#000000" d="M284.14,-237.4496C307.448,-229.0587 335.2257,-219.0587 359.0972,-210.465"/>
<polygon fill="#000000" stroke="#000000" points="359.7053,-212.1061 363.817,-208.7659 358.5198,-208.813 359.7053,-212.1061"/>
</g>
<!-- x2&#45;&gt;y -->
<g id="edge8" class="edge">
<title>x2&#45;&gt;y</title>
<path fill="none" stroke="#000000" d="M284.14,-143.9504C307.448,-152.3413 335.2257,-162.3413 359.0972,-170.935"/>
<polygon fill="#000000" stroke="#000000" points="358.5198,-172.587 363.817,-172.6341 359.7053,-169.2939 358.5198,-172.587"/>
</g>
<!-- M1&#45;&gt;x1 -->
<g id="edge1" class="edge">
<title>M1:e&#45;&gt;x1</title>
<path fill="none" stroke="#000000" d="M108,-154.7C108,-154.7 170.5875,-204.77 207.5407,-234.3325"/>
<polygon fill="#000000" stroke="#000000" points="206.4761,-235.722 211.4737,-237.479 208.6626,-232.9889 206.4761,-235.722"/>
</g>
<!-- M1&#45;&gt;x2 -->
<g id="edge3" class="edge">
<title>M1:e&#45;&gt;x2</title>
<path fill="none" stroke="#000000" d="M108,-154.7C108,-154.7 141.9531,-146.9393 174.6089,-139.4751"/>
<polygon fill="#000000" stroke="#000000" points="175.3491,-141.1011 179.8334,-138.2809 174.5692,-137.6891 175.3491,-141.1011"/>
</g>
<!-- M1&#45;&gt;y -->
<g id="edge5" class="edge">
<title>M1:e&#45;&gt;y</title>
<path fill="none" stroke="#000000" d="M108,-154.7C108,-154.7 266.1162,-173.3019 355.0306,-183.7624"/>
<polygon fill="#000000" stroke="#000000" points="354.8275,-185.5005 359.9977,-184.3468 355.2365,-182.0245 354.8275,-185.5005"/>
</g>
<!-- M2&#45;&gt;x1 -->
<g id="edge2" class="edge">
<title>M2:e&#45;&gt;x1</title>
<path fill="none" stroke="#000000" d="M108,-226.7C108,-226.7 141.9531,-234.4607 174.6089,-241.9249"/>
<polygon fill="#000000" stroke="#000000" points="174.5692,-243.7109 179.8334,-243.1191 175.3491,-240.2989 174.5692,-243.7109"/>
</g>
<!-- M2&#45;&gt;x2 -->
<g id="edge4" class="edge">
<title>M2:e&#45;&gt;x2</title>
<path fill="none" stroke="#000000" d="M108,-226.7C108,-226.7 170.5875,-176.63 207.5407,-147.0675"/>
<polygon fill="#000000" stroke="#000000" points="208.6626,-148.4111 211.4737,-143.921 206.4761,-145.678 208.6626,-148.4111"/>
</g>
<!-- M2&#45;&gt;y -->
<g id="edge6" class="edge">
<title>M2:e&#45;&gt;y:w</title>
<path fill="none" stroke="#000000" d="M108,-226.7C108,-226.7 318.5486,-196.6216 354.7366,-191.4519"/>
<polygon fill="#000000" stroke="#000000" points="355.2978,-193.1396 360,-190.7 354.8027,-189.6748 355.2978,-193.1396"/>
</g>
<!-- CV1&#45;&gt;x2 -->
<g id="edge11" class="edge">
<title>CV1&#45;&gt;x2</title>
<path fill="none" stroke="#000000" stroke-dasharray="5,2" d="M269.5957,-76.066C267.6005,-78.8592 258.5601,-91.5159 250.0901,-103.3738"/>
<polygon fill="#000000" stroke="#000000" points="248.4917,-102.6008 247.0096,-107.6866 251.3398,-104.6351 248.4917,-102.6008"/>
</g>
<!-- CV2&#45;&gt;x1 -->
<g id="edge10" class="edge">
<title>CV2&#45;&gt;x1</title>
<path fill="none" stroke="#000000" stroke-dasharray="5,2" d="M323.7418,-76.0164C319.6749,-84.1503 268.6089,-186.2821 245.3755,-232.749"/>
<polygon fill="#000000" stroke="#000000" points="243.7541,-232.0787 243.0833,-237.3335 246.8846,-233.644 243.7541,-232.0787"/>
</g>
<!-- CV3&#45;&gt;y -->
<g id="edge9" class="edge">
<title>CV3&#45;&gt;y</title>
<path fill="none" stroke="#000000" stroke-dasharray="5,2" d="M378.2299,-76.2356C380.3672,-83.0749 396.9063,-136.0001 406.7301,-167.4364"/>
<polygon fill="#000000" stroke="#000000" points="405.0841,-168.0365 408.2459,-172.2869 408.4248,-166.9925 405.0841,-168.0365"/>
</g>
<!-- x1 -->
<g id="node1" class="node">
<title>x1</title>
<polygon fill="#ffffff" stroke="#000000" points="288,-273.5 180,-273.5 180,-237.5 288,-237.5 288,-273.5"/>
<text text-anchor="start" x="215.939" y="-258.5" font-family="Helvetica,sans-Serif" font-size="10.00" fill="#000000">Valuing </text>
<text text-anchor="start" x="214.2785" y="-246.5" font-family="Helvetica,sans-Serif" font-size="10.00" fill="#000000"> diversity</text>
</g>
<!-- x2 -->
<g id="node2" class="node">
<title>x2</title>
<polygon fill="#ffffff" stroke="#000000" points="288,-143.9 180,-143.9 180,-107.9 288,-107.9 288,-143.9"/>
<text text-anchor="start" x="197.323" y="-128.9" font-family="Helvetica,sans-Serif" font-size="10.00" fill="#000000">Positive attitude </text>
<text text-anchor="start" x="204.5515" y="-116.9" font-family="Helvetica,sans-Serif" font-size="10.00" fill="#000000"> re foreigners</text>
</g>
<!-- y -->
<g id="node3" class="node">
<title>y</title>
<polygon fill="#ffffff" stroke="#000000" points="468,-208.7 360,-208.7 360,-172.7 468,-172.7 468,-208.7"/>
<text text-anchor="start" x="391.214" y="-193.7" font-family="Helvetica,sans-Serif" font-size="10.00" fill="#000000">Approach </text>
<text text-anchor="start" x="391.215" y="-181.7" font-family="Helvetica,sans-Serif" font-size="10.00" fill="#000000"> intentions</text>
</g>
<!-- M1 -->
<g id="node4" class="node">
<title>M1</title>
<polygon fill="#ffffff" stroke="#000000" points="108,-172.7 0,-172.7 0,-136.7 108,-136.7 108,-172.7"/>
<text text-anchor="start" x="32.884" y="-157.7" font-family="Helvetica,sans-Serif" font-size="10.00" fill="#000000">Negative </text>
<text text-anchor="start" x="36.493" y="-145.7" font-family="Helvetica,sans-Serif" font-size="10.00" fill="#000000"> contact</text>
</g>
<!-- M2 -->
<g id="node5" class="node">
<title>M2</title>
<polygon fill="#ffffff" stroke="#000000" points="108,-244.7 0,-244.7 0,-208.7 108,-208.7 108,-244.7"/>
<text text-anchor="start" x="35.1085" y="-229.7" font-family="Helvetica,sans-Serif" font-size="10.00" fill="#000000">Positive </text>
<text text-anchor="start" x="36.493" y="-217.7" font-family="Helvetica,sans-Serif" font-size="10.00" fill="#000000"> contact</text>
</g>
<!-- c1 -->
<g id="node6" class="node">
<title>c1</title>
<polygon fill-opacity="0.0" stroke="transparent" points="244.8,-241.1 208.8,-241.1 208.8,-205.1 244.8,-205.1 244.8,-241.1"/>
<text text-anchor="start" x="211.2385" y="-220.1" font-family="Helvetica,sans-Serif" font-size="10.00" fill="#000000">0.10***</text>
</g>
<!-- c2 -->
<g id="node7" class="node">
<title>c2</title>
<polygon fill-opacity="0.0" stroke="transparent" points="244.8,-174.86 208.8,-174.86 208.8,-138.86 244.8,-138.86 244.8,-174.86"/>
<text text-anchor="start" x="215.4075" y="-153.86" font-family="Helvetica,sans-Serif" font-size="10.00" fill="#000000">&#45;0.02</text>
</g>
<!-- a1 -->
<g id="node8" class="node">
<title>a1</title>
<polygon fill-opacity="0.0" stroke="transparent" points="158.4,-259.1 122.4,-259.1 122.4,-223.1 158.4,-223.1 158.4,-259.1"/>
<text text-anchor="start" x="124.8385" y="-238.1" font-family="Helvetica,sans-Serif" font-size="10.00" fill="#000000">0.24***</text>
</g>
<!-- d2 -->
<g id="node9" class="node">
<title>d2</title>
<polygon fill-opacity="0.0" stroke="transparent" points="158.4,-151.1 122.4,-151.1 122.4,-115.1 158.4,-115.1 158.4,-151.1"/>
<text text-anchor="start" x="123.174" y="-130.1" font-family="Helvetica,sans-Serif" font-size="10.00" fill="#000000">&#45;0.20***</text>
</g>
<!-- b1 -->
<g id="node10" class="node">
<title>b1</title>
<polygon fill-opacity="0.0" stroke="transparent" points="352.8,-251.9 316.8,-251.9 316.8,-215.9 352.8,-215.9 352.8,-251.9"/>
<text text-anchor="start" x="319.2385" y="-230.9" font-family="Helvetica,sans-Serif" font-size="10.00" fill="#000000">0.13***</text>
</g>
<!-- b2 -->
<g id="node11" class="node">
<title>b2</title>
<polygon fill-opacity="0.0" stroke="transparent" points="353.52,-165.5 317.52,-165.5 317.52,-129.5 353.52,-129.5 353.52,-165.5"/>
<text text-anchor="start" x="319.9585" y="-144.5" font-family="Helvetica,sans-Serif" font-size="10.00" fill="#000000">0.34***</text>
</g>
<!-- d1 -->
<g id="node12" class="node">
<title>d1</title>
<polygon fill-opacity="0.0" stroke="transparent" points="138.24,-217.34 102.24,-217.34 102.24,-181.34 138.24,-181.34 138.24,-217.34"/>
<text text-anchor="start" x="104.6785" y="-196.34" font-family="Helvetica,sans-Serif" font-size="10.00" fill="#000000">0.25***</text>
</g>
<!-- a2 -->
<g id="node13" class="node">
<title>a2</title>
<polygon fill-opacity="0.0" stroke="transparent" points="138.24,-197.9 102.24,-197.9 102.24,-161.9 138.24,-161.9 138.24,-197.9"/>
<text text-anchor="start" x="103.014" y="-176.9" font-family="Helvetica,sans-Serif" font-size="10.00" fill="#000000">&#45;0.08***</text>
</g>
<!-- CV -->
<g id="node14" class="node">
<title>CV</title>
<polygon fill="#ffffff" stroke="#000000" points="406.6,-79 248.6,-79 248.6,0 406.6,0 406.6,-79"/>
<text text-anchor="start" x="269.5315" y="-66.5" font-family="Helvetica,sans-Serif" font-weight="bold" font-size="10.00" fill="#000000">Covariates:</text>
<text text-anchor="start" x="320.0925" y="-66.5" font-family="Helvetica,sans-Serif" font-size="10.00" fill="#000000"> </text>
<text text-anchor="start" x="269.5315" y="-56.5" font-family="Helvetica,sans-Serif" font-size="10.00" fill="#000000">&#x2022; Gender</text>
<text text-anchor="start" x="269.5315" y="-46.5" font-family="Helvetica,sans-Serif" font-size="10.00" fill="#000000">&#x2022; Age</text>
<text text-anchor="start" x="269.5315" y="-36.5" font-family="Helvetica,sans-Serif" font-size="10.00" fill="#000000">&#x2022; Education</text>
<text text-anchor="start" x="269.5315" y="-26.5" font-family="Helvetica,sans-Serif" font-size="10.00" fill="#000000">&#x2022; Region (East/West)</text>
<text text-anchor="start" x="269.5315" y="-16.5" font-family="Helvetica,sans-Serif" font-size="10.00" fill="#000000">&#x2022; Political orientation</text>
<text text-anchor="start" x="269.5315" y="-6.5" font-family="Helvetica,sans-Serif" font-size="10.00" fill="#000000">&#x2022; Neighborhood diversity</text>
</g>
<!-- CV1 -->
<!-- CV2 -->
<!-- CV3 -->
</g>
</svg>

