<?xml version="1.0" encoding="UTF-8" standalone="no"?>
<!DOCTYPE svg PUBLIC "-//W3C//DTD SVG 1.1//EN"
 "http://www.w3.org/Graphics/SVG/1.1/DTD/svg11.dtd">
<!-- Generated by graphviz version 2.40.1 (20161225.0304)
 -->
<!-- Title: %0 Pages: 1 -->
<svg width="361pt" height="260pt"
 viewBox="0.00 0.00 360.80 260.00" xmlns="http://www.w3.org/2000/svg" xmlns:xlink="http://www.w3.org/1999/xlink">
<g id="graph0" class="graph" transform="scale(1 1) rotate(0) translate(4 256)">
<title>%0</title>
<polygon fill="#ffffff" stroke="transparent" points="-4,4 -4,-256 356.8,-256 356.8,4 -4,4"/>
<!-- 1&#45;&gt;4 -->
<g id="edge1" class="edge">
<title>1&#45;&gt;4</title>
<path fill="none" stroke="#000000" d="M122.6271,-234C153.8246,-234 193.0591,-234 225.0763,-234"/>
<polygon fill="#000000" stroke="#000000" points="225.1506,-235.7501 230.1506,-234 225.1505,-232.2501 225.1506,-235.7501"/>
<text text-anchor="start" x="156.2142" y="-225" font-family="Helvetica,sans-Serif" font-size="10.00" fill="#000000">0.35 ***&#x00a0;&#x00a0;&#x00a0;&#x00a0;&#x00a0;&#x00a0;</text>
</g>
<!-- 1&#45;&gt;5 -->
<g id="edge4" class="edge">
<title>1&#45;&gt;5</title>
<path fill="none" stroke="#000000" d="M98.4339,-218.9831C138.0583,-199.1709 207.6643,-164.3678 249.557,-143.4215"/>
<polygon fill="#000000" stroke="#000000" points="250.5843,-144.8645 254.2738,-141.0631 249.019,-141.734 250.5843,-144.8645"/>
</g>
<!-- 2&#45;&gt;4 -->
<g id="edge5" class="edge">
<title>2&#45;&gt;4</title>
<path fill="none" stroke="#000000" d="M98.4339,-141.0169C138.0583,-160.8291 207.6643,-195.6322 249.557,-216.5785"/>
<polygon fill="#000000" stroke="#000000" points="249.019,-218.266 254.2738,-218.9369 250.5843,-215.1355 249.019,-218.266"/>
</g>
<!-- 2&#45;&gt;5 -->
<g id="edge2" class="edge">
<title>2&#45;&gt;5</title>
<path fill="none" stroke="#000000" d="M122.6271,-126C153.8246,-126 193.0591,-126 225.0763,-126"/>
<polygon fill="#000000" stroke="#000000" points="225.1506,-127.7501 230.1506,-126 225.1505,-124.2501 225.1506,-127.7501"/>
<text text-anchor="start" x="129.4147" y="-117" font-family="Helvetica,sans-Serif" font-size="10.00" fill="#000000">0.52 ***&#x00a0;&#x00a0;&#x00a0;&#x00a0;&#x00a0;&#x00a0;&#x00a0;&#x00a0;&#x00a0;</text>
</g>
<!-- 3&#45;&gt;4 -->
<g id="edge6" class="edge">
<title>3&#45;&gt;4</title>
<path fill="none" stroke="#000000" d="M85.7111,-35.3111C125.0675,-74.6675 221.128,-170.728 263.6094,-213.2094"/>
<polygon fill="#000000" stroke="#000000" points="262.5333,-214.6082 267.3063,-216.9063 265.0082,-212.1333 262.5333,-214.6082"/>
</g>
<!-- 3&#45;&gt;6 -->
<g id="edge3" class="edge">
<title>3&#45;&gt;6</title>
<path fill="none" stroke="#000000" d="M122.6271,-18C153.8246,-18 193.0591,-18 225.0763,-18"/>
<polygon fill="#000000" stroke="#000000" points="225.1506,-19.7501 230.1506,-18 225.1505,-16.2501 225.1506,-19.7501"/>
<text text-anchor="start" x="156.2142" y="-9" font-family="Helvetica,sans-Serif" font-size="10.00" fill="#000000">0.63 ***&#x00a0;&#x00a0;&#x00a0;&#x00a0;&#x00a0;&#x00a0;</text>
</g>
<!-- 1 -->
<g id="node1" class="node">
<title>1</title>
<ellipse fill="#ffffff" stroke="#000000" cx="68.4" cy="-234" rx="54" ry="18"/>
<text text-anchor="start" x="51.7285" y="-237" font-family="Helvetica,sans-Serif" font-size="10.00" fill="#000000">Valuing</text>
<text text-anchor="start" x="39.5155" y="-225" font-family="Helvetica,sans-Serif" font-size="10.00" fill="#000000">diversity (T1)</text>
</g>
<!-- 2 -->
<g id="node2" class="node">
<title>2</title>
<ellipse fill="#ffffff" stroke="#000000" cx="68.4" cy="-126" rx="54" ry="18"/>
<text text-anchor="start" x="49.5085" y="-129" font-family="Helvetica,sans-Serif" font-size="10.00" fill="#000000">Positive </text>
<text text-anchor="start" x="40.3405" y="-117" font-family="Helvetica,sans-Serif" font-size="10.00" fill="#000000"> contact (T1)</text>
</g>
<!-- 3 -->
<g id="node3" class="node">
<title>3</title>
<ellipse fill="#ffffff" stroke="#000000" cx="68.4" cy="-18" rx="54" ry="18"/>
<text text-anchor="start" x="47.284" y="-21" font-family="Helvetica,sans-Serif" font-size="10.00" fill="#000000">Negative </text>
<text text-anchor="start" x="40.3405" y="-9" font-family="Helvetica,sans-Serif" font-size="10.00" fill="#000000"> contact (T1)</text>
</g>
<!-- 4 -->
<g id="node4" class="node">
<title>4</title>
<ellipse fill="#ffffff" stroke="#000000" cx="284.4" cy="-234" rx="54" ry="18"/>
<text text-anchor="start" x="267.7285" y="-237" font-family="Helvetica,sans-Serif" font-size="10.00" fill="#000000">Valuing</text>
<text text-anchor="start" x="255.5155" y="-225" font-family="Helvetica,sans-Serif" font-size="10.00" fill="#000000">diversity (T2)</text>
</g>
<!-- 5 -->
<g id="node5" class="node">
<title>5</title>
<ellipse fill="#ffffff" stroke="#000000" cx="284.4" cy="-126" rx="54" ry="18"/>
<text text-anchor="start" x="265.5085" y="-129" font-family="Helvetica,sans-Serif" font-size="10.00" fill="#000000">Positive </text>
<text text-anchor="start" x="256.3405" y="-117" font-family="Helvetica,sans-Serif" font-size="10.00" fill="#000000"> contact (T2)</text>
</g>
<!-- 6 -->
<g id="node6" class="node">
<title>6</title>
<ellipse fill="#ffffff" stroke="#000000" cx="284.4" cy="-18" rx="54" ry="18"/>
<text text-anchor="start" x="263.284" y="-21" font-family="Helvetica,sans-Serif" font-size="10.00" fill="#000000">Negative </text>
<text text-anchor="start" x="256.3405" y="-9" font-family="Helvetica,sans-Serif" font-size="10.00" fill="#000000"> contact (T2)</text>
</g>
<!-- 8 -->
<g id="node7" class="node">
<title>8</title>
<text text-anchor="start" x="137.849" y="-151.8" font-family="Helvetica,sans-Serif" font-size="10.00" fill="#000000">0.39 ***</text>
</g>
<!-- 12 -->
<g id="node8" class="node">
<title>12</title>
<text text-anchor="start" x="138.129" y="-79.8" font-family="Helvetica,sans-Serif" font-size="10.00" fill="#000000">&#45;0.25 **</text>
</g>
<!-- 13 -->
<g id="node9" class="node">
<title>13</title>
<text text-anchor="start" x="139.514" y="-202.2" font-family="Helvetica,sans-Serif" font-size="10.00" fill="#000000">0.08 &#x2020;</text>
</g>
<!-- 9 -->
<g id="node10" class="node">
<title>9</title>
<text text-anchor="start" x="4.938" y="-177" font-family="Helvetica,sans-Serif" font-size="10.00" fill="#000000">0.14 *</text>
</g>
<!-- 11 -->
<g id="node11" class="node">
<title>11</title>
<text text-anchor="start" x="320.0735" y="-69" font-family="Helvetica,sans-Serif" font-size="10.00" fill="#000000">&#45;0.09 *</text>
</g>
</g>
</svg>

