<?xml version="1.0" encoding="UTF-8" standalone="no"?>
<!DOCTYPE svg PUBLIC "-//W3C//DTD SVG 1.1//EN"
 "http://www.w3.org/Graphics/SVG/1.1/DTD/svg11.dtd">
<!-- Generated by graphviz version 2.40.1 (20161225.0304)
 -->
<!-- Title: %0 Pages: 1 -->
<svg width="620pt" height="310pt"
 viewBox="0.00 0.00 620.00 310.40" xmlns="http://www.w3.org/2000/svg" xmlns:xlink="http://www.w3.org/1999/xlink">
<g id="graph0" class="graph" transform="scale(1 1) rotate(0) translate(4 306.4)">
<title>%0</title>
<polygon fill="#ffffff" stroke="transparent" points="-4,4 -4,-306.4 616,-306.4 616,4 -4,4"/>
<!-- x1&#45;&gt;y -->
<g id="edge9" class="edge">
<title>x1:e&#45;&gt;y</title>
<path fill="none" stroke="#556b2f" d="M360,-284.4C360,-284.4 440.672,-257.9983 499.0291,-238.8996"/>
<polygon fill="#556b2f" stroke="#556b2f" points="499.688,-240.5253 503.8956,-237.3069 498.5993,-237.199 499.688,-240.5253"/>
</g>
<!-- x2&#45;&gt;y -->
<g id="edge10" class="edge">
<title>x2:e&#45;&gt;y</title>
<path fill="none" stroke="#4682b4" stroke-dasharray="5,2" d="M360,-154.8C360,-154.8 440.672,-181.2017 499.0291,-200.3004"/>
<polygon fill="#4682b4" stroke="#4682b4" points="498.5993,-202.0011 503.8956,-201.8931 499.688,-198.6747 498.5993,-202.0011"/>
</g>
<!-- x3&#45;&gt;y -->
<g id="edge11" class="edge">
<title>x3:e&#45;&gt;y:s</title>
<path fill="none" stroke="#8b4513" d="M360,-25.2C360,-25.2 526.848,-173.8464 554.2215,-198.2337"/>
<polygon fill="#8b4513" stroke="#8b4513" points="553.1026,-199.5806 558,-201.6 555.4308,-196.9673 553.1026,-199.5806"/>
</g>
<!-- M1&#45;&gt;x1 -->
<g id="edge1" class="edge">
<title>M1:e&#45;&gt;x1:s</title>
<path fill="none" stroke="#556b2f" d="M108,-39.6C108,-39.6 276.271,-232.3468 302.5633,-262.4635"/>
<polygon fill="#556b2f" stroke="#556b2f" points="301.3934,-263.7843 306,-266.4 304.03,-261.4825 301.3934,-263.7843"/>
</g>
<!-- M1&#45;&gt;x2 -->
<g id="edge3" class="edge">
<title>M1:e&#45;&gt;x2:s</title>
<path fill="none" stroke="#4682b4" d="M108,-39.6C108,-39.6 272.0201,-120.119 301.4925,-134.5872"/>
<polygon fill="#4682b4" stroke="#4682b4" points="300.7404,-136.1675 306,-136.8 302.2828,-133.0257 300.7404,-136.1675"/>
</g>
<!-- M1&#45;&gt;x3 -->
<g id="edge5" class="edge">
<title>M1:e&#45;&gt;x3:w</title>
<path fill="none" stroke="#8b4513" d="M108,-39.6C108,-39.6 221.2229,-28.2777 246.875,-25.7125"/>
<polygon fill="#8b4513" stroke="#8b4513" points="247.199,-27.4389 252,-25.2 246.8506,-23.9563 247.199,-27.4389"/>
</g>
<!-- M1&#45;&gt;y -->
<g id="edge7" class="edge">
<title>M1:e&#45;&gt;y:s</title>
<path fill="none" stroke="#000000" stroke-dasharray="5,2" d="M108,-39.6C108,-39.6 505.1575,-182.5767 553.2508,-199.8903"/>
<polygon fill="#000000" stroke="#000000" points="552.7028,-201.5529 558,-201.6 553.8883,-198.2598 552.7028,-201.5529"/>
</g>
<!-- M2&#45;&gt;x1 -->
<g id="edge2" class="edge">
<title>M2:e&#45;&gt;x1:w</title>
<path fill="none" stroke="#556b2f" d="M108,-255.6C108,-255.6 221.2229,-278.2446 246.875,-283.375"/>
<polygon fill="#556b2f" stroke="#556b2f" points="246.7539,-285.1354 252,-284.4 247.4403,-281.7033 246.7539,-285.1354"/>
</g>
<!-- M2&#45;&gt;x2 -->
<g id="edge4" class="edge">
<title>M2:e&#45;&gt;x2:n</title>
<path fill="none" stroke="#4682b4" d="M108,-255.6C108,-255.6 270.6152,-187.5973 301.1056,-174.8468"/>
<polygon fill="#4682b4" stroke="#4682b4" points="302.0623,-176.3436 306,-172.8 300.7119,-173.1146 302.0623,-176.3436"/>
</g>
<!-- M2&#45;&gt;x3 -->
<g id="edge6" class="edge">
<title>M2:e&#45;&gt;x3:nw</title>
<path fill="none" stroke="#8b4513" d="M108,-255.6C108,-255.6 228.3135,-78.1376 248.9924,-47.6363"/>
<polygon fill="#8b4513" stroke="#8b4513" points="250.6427,-48.3206 252,-43.2 247.7457,-46.3565 250.6427,-48.3206"/>
</g>
<!-- M2&#45;&gt;y -->
<g id="edge8" class="edge">
<title>M2:e&#45;&gt;y:w</title>
<path fill="none" stroke="#000000" stroke-dasharray="5,2" d="M108,-255.6C108,-255.6 453.1525,-224.2225 498.9931,-220.0552"/>
<polygon fill="#000000" stroke="#000000" points="499.179,-221.7956 504,-219.6 498.8621,-218.31 499.179,-221.7956"/>
</g>
<!-- x1 -->
<g id="node1" class="node">
<title>x1</title>
<polygon fill="#ffffff" stroke="#556b2f" points="360,-302.4 252,-302.4 252,-266.4 360,-266.4 360,-302.4"/>
<text text-anchor="start" x="286.273" y="-281.4" font-family="Helvetica,sans-Serif" font-size="10.00" fill="#556b2f">Empathy</text>
</g>
<!-- x2 -->
<g id="node2" class="node">
<title>x2</title>
<polygon fill="#ffffff" stroke="#4682b4" points="360,-172.8 252,-172.8 252,-136.8 360,-136.8 360,-172.8"/>
<text text-anchor="start" x="289.6075" y="-151.8" font-family="Helvetica,sans-Serif" font-size="10.00" fill="#4682b4">Anxiety</text>
</g>
<!-- x3 -->
<g id="node3" class="node">
<title>x3</title>
<polygon fill="#ffffff" stroke="#8b4513" points="360,-43.2 252,-43.2 252,-7.2 360,-7.2 360,-43.2"/>
<text text-anchor="start" x="289.3285" y="-28.2" font-family="Helvetica,sans-Serif" font-size="10.00" fill="#8b4513">Valuing</text>
<text text-anchor="start" x="287.668" y="-16.2" font-family="Helvetica,sans-Serif" font-size="10.00" fill="#8b4513">diversity</text>
</g>
<!-- y -->
<g id="node4" class="node">
<title>y</title>
<polygon fill="#ffffff" stroke="#000000" points="612,-237.6 504,-237.6 504,-201.6 612,-201.6 612,-237.6"/>
<text text-anchor="start" x="526.6055" y="-216.6" font-family="Helvetica,sans-Serif" font-size="10.00" fill="#000000">Policy support</text>
</g>
<!-- M1 -->
<g id="node5" class="node">
<title>M1</title>
<polygon fill="#ffffff" stroke="#000000" points="108,-57.6 0,-57.6 0,-21.6 108,-21.6 108,-57.6"/>
<text text-anchor="start" x="32.884" y="-42.6" font-family="Helvetica,sans-Serif" font-size="10.00" fill="#000000">Negative </text>
<text text-anchor="start" x="36.493" y="-30.6" font-family="Helvetica,sans-Serif" font-size="10.00" fill="#000000"> contact</text>
</g>
<!-- M2 -->
<g id="node6" class="node">
<title>M2</title>
<polygon fill="#ffffff" stroke="#000000" points="108,-273.6 0,-273.6 0,-237.6 108,-237.6 108,-273.6"/>
<text text-anchor="start" x="35.1085" y="-258.6" font-family="Helvetica,sans-Serif" font-size="10.00" fill="#000000">Positive </text>
<text text-anchor="start" x="36.493" y="-246.6" font-family="Helvetica,sans-Serif" font-size="10.00" fill="#000000"> contact</text>
</g>
<!-- cdash1 -->
<g id="node7" class="node">
<title>cdash1</title>
<polygon fill-opacity="0.0" stroke="transparent" points="324,-241.2 288,-241.2 288,-205.2 324,-205.2 324,-241.2"/>
<text text-anchor="start" x="297.662" y="-226.2" font-family="Helvetica,sans-Serif" font-size="10.00" fill="#000000">.01 </text>
<text text-anchor="start" x="277.932" y="-214.2" font-family="Helvetica,sans-Serif" font-size="10.00" fill="#000000"> [&#45;0.11, 0.13]</text>
</g>
<!-- cdash2 -->
<g id="node8" class="node">
<title>cdash2</title>
<polygon fill-opacity="0.0" stroke="transparent" points="316.8,-111.6 280.8,-111.6 280.8,-75.6 316.8,-75.6 316.8,-111.6"/>
<text text-anchor="start" x="288.7975" y="-96.6" font-family="Helvetica,sans-Serif" font-size="10.00" fill="#000000">&#45;.01 </text>
<text text-anchor="start" x="270.732" y="-84.6" font-family="Helvetica,sans-Serif" font-size="10.00" fill="#000000"> [&#45;0.13, 0.12]</text>
</g>
<!-- a1 -->
<g id="node9" class="node">
<title>a1</title>
<polygon fill-opacity="0.0" stroke="transparent" points="172.8,-302.4 136.8,-302.4 136.8,-266.4 172.8,-266.4 172.8,-302.4"/>
<text text-anchor="start" x="140.6285" y="-287.4" font-family="Helvetica,sans-Serif" font-size="10.00" fill="#556b2f">.34*** </text>
<text text-anchor="start" x="128.3965" y="-275.4" font-family="Helvetica,sans-Serif" font-size="10.00" fill="#556b2f"> [0.22, 0.51]</text>
</g>
<!-- a2 -->
<g id="node10" class="node">
<title>a2</title>
<polygon fill-opacity="0.0" stroke="transparent" points="158.4,-144 122.4,-144 122.4,-108 158.4,-108 158.4,-144"/>
<text text-anchor="start" x="126.5085" y="-129" font-family="Helvetica,sans-Serif" font-size="10.00" fill="#556b2f">&#45;.19** </text>
<text text-anchor="start" x="110.6675" y="-117" font-family="Helvetica,sans-Serif" font-size="10.00" fill="#556b2f"> [&#45;0.32, &#45;0.04]</text>
</g>
<!-- aa -->
<g id="node11" class="node">
<title>aa</title>
<polygon fill-opacity="0.0" stroke="transparent" points="446.4,-302.4 410.4,-302.4 410.4,-266.4 446.4,-266.4 446.4,-302.4"/>
<text text-anchor="start" x="418.1175" y="-287.4" font-family="Helvetica,sans-Serif" font-size="10.00" fill="#556b2f">.15* </text>
<text text-anchor="start" x="401.9965" y="-275.4" font-family="Helvetica,sans-Serif" font-size="10.00" fill="#556b2f"> [0.00, 0.27]</text>
</g>
<!-- bb -->
<g id="node12" class="node">
<title>bb</title>
<polygon fill-opacity="0.0" stroke="transparent" points="432,-212.4 396,-212.4 396,-176.4 432,-176.4 432,-212.4"/>
<text text-anchor="start" x="403.9975" y="-197.4" font-family="Helvetica,sans-Serif" font-size="10.00" fill="#4682b4">&#45;.10 </text>
<text text-anchor="start" x="385.932" y="-185.4" font-family="Helvetica,sans-Serif" font-size="10.00" fill="#4682b4"> [&#45;0.23, 0.01]</text>
</g>
<!-- cc -->
<g id="node13" class="node">
<title>cc</title>
<polygon fill-opacity="0.0" stroke="transparent" points="511.2,-122.4 475.2,-122.4 475.2,-86.4 511.2,-86.4 511.2,-122.4"/>
<text text-anchor="start" x="479.0285" y="-107.4" font-family="Helvetica,sans-Serif" font-size="10.00" fill="#8b4513">.58*** </text>
<text text-anchor="start" x="466.7965" y="-95.4" font-family="Helvetica,sans-Serif" font-size="10.00" fill="#8b4513"> [0.40, 0.75]</text>
</g>
<!-- b1 -->
<g id="node14" class="node">
<title>b1</title>
<polygon fill-opacity="0.0" stroke="transparent" points="226.8,-212.4 190.8,-212.4 190.8,-176.4 226.8,-176.4 226.8,-212.4"/>
<text text-anchor="start" x="192.964" y="-197.4" font-family="Helvetica,sans-Serif" font-size="10.00" fill="#4682b4">&#45;.34*** </text>
<text text-anchor="start" x="179.0675" y="-185.4" font-family="Helvetica,sans-Serif" font-size="10.00" fill="#4682b4"> [&#45;0.47, &#45;0.21]</text>
</g>
<!-- b2 -->
<g id="node15" class="node">
<title>b2</title>
<polygon fill-opacity="0.0" stroke="transparent" points="252,-144 216,-144 216,-108 252,-108 252,-144"/>
<text text-anchor="start" x="219.8285" y="-129" font-family="Helvetica,sans-Serif" font-size="10.00" fill="#4682b4">.30*** </text>
<text text-anchor="start" x="207.5965" y="-117" font-family="Helvetica,sans-Serif" font-size="10.00" fill="#4682b4"> [0.16, 0.46]</text>
</g>
<!-- c1 -->
<g id="node16" class="node">
<title>c1</title>
<polygon fill-opacity="0.0" stroke="transparent" points="151.2,-198 115.2,-198 115.2,-162 151.2,-162 151.2,-198"/>
<text text-anchor="start" x="119.0285" y="-183" font-family="Helvetica,sans-Serif" font-size="10.00" fill="#8b4513">.43*** </text>
<text text-anchor="start" x="106.7965" y="-171" font-family="Helvetica,sans-Serif" font-size="10.00" fill="#8b4513"> [0.32, 0.54]</text>
</g>
<!-- c2 -->
<g id="node17" class="node">
<title>c2</title>
<polygon fill-opacity="0.0" stroke="transparent" points="180,-36 144,-36 144,0 180,0 180,-36"/>
<text text-anchor="start" x="146.164" y="-21" font-family="Helvetica,sans-Serif" font-size="10.00" fill="#8b4513">&#45;.30*** </text>
<text text-anchor="start" x="132.2675" y="-9" font-family="Helvetica,sans-Serif" font-size="10.00" fill="#8b4513"> [&#45;0.43, &#45;0.17]</text>
</g>
</g>
</svg>

